<svg width="16" height="17" viewBox="0 0 16 17" fill="none" xmlns="http://www.w3.org/2000/svg">
<g opacity="0.5">
<path d="M6.93359 3.13379C9.30835 3.13379 11.2333 5.05886 11.2334 7.43359C11.2334 8.44922 10.8824 9.38156 10.2939 10.1172L10.0137 10.4668L13.3574 13.8105C13.3638 13.8171 13.3672 13.8255 13.3672 13.834L13.3574 13.8574C13.3444 13.8703 13.3236 13.8702 13.3105 13.8574L9.9668 10.5137L9.61719 10.7939C8.88156 11.3824 7.94922 11.7334 6.93359 11.7334C4.55886 11.7333 2.63379 9.80835 2.63379 7.43359C2.63389 5.05893 4.55893 3.13389 6.93359 3.13379ZM6.93359 3.2002C4.59574 3.2003 2.7003 5.09574 2.7002 7.43359C2.7002 9.77154 4.59567 11.6669 6.93359 11.667C9.2716 11.667 11.167 9.7716 11.167 7.43359C11.1669 5.09567 9.27154 3.2002 6.93359 3.2002Z" fill="#09090B" stroke="#09090B"/>
</g>
</svg>
